<?xml version="1.0" encoding="iso-8859-1"?>
<!-- Uploaded to: SVG Repo, www.svgrepo.com, Generator: SVG Repo Mixer Tools -->
<svg height="800px" width="800px" version="1.1" id="Layer_1" xmlns="http://www.w3.org/2000/svg" xmlns:xlink="http://www.w3.org/1999/xlink" 
	 viewBox="0 0 511.998 511.998" xml:space="preserve">
<circle style="fill:#0F7986;" cx="255.999" cy="255.999" r="255.999"/>
<path style="fill:#DCE3DB;" d="M291.404,102.532v0.002c-81.84-12.901-158.238,42.884-171.137,124.596
	c-7.97,50.48,10.368,99.035,44.743,131.828l-12.236,15.114l15.875,12.793l12.093-14.878c18.459,13.342,40.252,22.657,64.285,26.451
	c81.711,12.901,158.243-42.884,171.142-124.593C429.07,192.132,373.244,115.43,291.404,102.532z"/>
<circle style="fill:#FFFFFF;" cx="268.824" cy="250.31" r="133.648"/>
<path style="fill:#F0BA7D;" d="M251.82,251.509h6.758h20.501h6.758l2.756,28.67l4.894,3.927l10.321,6.573l-34.978,6.61l-34.98-6.61
	l10.321-6.573l4.897-3.924L251.82,251.509z"/>
<path style="fill:#21D0C3;" d="M241.077,286.072l-28.676,9.152l0.002,0.002l-21.191,6.765c0,0-6.455,3.353-8.405,13.564
	c-1.867,9.776-2.835,19.766-4.306,33.247c22.983,21.087,53.364,34.243,86.809,35.11l0.104,0.002
	c1.136,0.029,2.271,0.044,3.408,0.044h0.004h0.002c1.145,0,2.28-0.015,3.417-0.044l0.077-0.002
	c33.457-0.86,63.846-14.017,86.833-35.112c-1.475-13.479-2.445-23.468-4.311-33.245c-1.949-10.211-8.405-13.564-8.405-13.564
	l-29.609-9.386l-19.921-6.313c-22.963,14.821-32.991,14.655-55.838-0.219L241.077,286.072z"/>
<path style="fill:#FED298;" d="M229.213,193.208c0,2.664-0.972,5.272-0.899,7.83c-9.115-1.691-4.714,25.384,0.445,29.106
	c0.408,0.295,1.418-0.364,2.267-0.906c1.79,9.958,17.057,36.569,26.765,47.768c2.697,3.109,19.182,3.058,21.852,0.117
	c9.944-10.945,25.191-37.871,26.989-47.887c0.851,0.542,1.858,1.202,2.269,0.906c5.157-3.722,9.56-30.798,0.445-29.106
	c0.073-2.558-0.899-5.166-0.899-7.83c-0.505-21.023-19.555-31.52-39.616-31.611c-20.06,0.091-39.111,10.585-39.616,31.611
	L229.213,193.208L229.213,193.208z"/>
<path style="fill:#666666;" d="M297.746,166.257c2.875-0.335,13.258,2.846,14.504,13.833c1.248,10.986,0.653,21.109,0.653,21.109
	s-6.083,1.537-6.851,7.772c-0.766,6.238-0.219,6.238-0.219,6.238l-2.203-0.496l-1.57-10.691c-9.101-5.702,0.071-14.15-9.035-16.128
	c-24.584,17.522-46.277,14.524-56.058,6.28c0,0,2.285,8.621,0.523,11.694s-0.71,7.919-0.71,7.919l-2.287-0.11
	c0,0,0.414-12.698-4.661-12.64c-19.288-31.845,41.773-71.404,67.916-34.779H297.746z"/>
<g>
	<path style="fill:#FAD24D;" d="M248.83,276.087c0.713,0.049-8.326,10.246-8.326,10.246l7.695,26.347l20.631-15.394
		C257.482,291.718,250.71,284.506,248.83,276.087z"/>
	<path style="fill:#FAD24D;" d="M288.83,276.087c-0.713,0.049,8.324,10.246,8.324,10.246l-7.695,26.347l-20.631-15.394
		c11.349-5.567,18.122-12.779,20-21.199L288.83,276.087L288.83,276.087z"/>
</g>
<g>
	<path style="fill:#FF5B62;" d="M174.665,391.71l-27.673-22.333c-4.152-3.351-10.286-2.697-13.634,1.453L50.194,473.89
		c-3.351,4.152-2.697,10.284,1.457,13.634l27.673,22.333c4.15,3.349,10.284,2.697,13.632-1.457l83.166-103.059
		c3.349-4.15,2.697-10.284-1.457-13.632V391.71z"/>
	<path style="fill:#FF5B62;" d="M95.708,179.307h10.74v-10.74h3.882v10.74h10.742v3.882H110.33v10.742h-3.882v-10.742h-10.74
		V179.307z"/>
</g>
<path style="fill:#21D0C3;" d="M114.888,129.702h19.246v-19.246h6.958v19.246h19.25v6.96h-19.25v19.25h-6.958v-19.25h-19.246
	C114.888,136.663,114.888,129.702,114.888,129.702z"/>
<path style="fill:#FAD24D;" d="M144.12,210.439h12.285v-12.285h4.44v12.285h12.288v4.44h-12.288v12.288h-4.44v-12.288H144.12
	V210.439z"/>
<path style="fill:#FF5B62;" d="M358.438,354.889h10.484v-10.483h3.793v10.484h10.488v3.793h-10.488v10.488h-3.793v-10.488h-10.484
	V354.889z"/>
<path style="fill:#21D0C3;" d="M389.358,379.789h16.428v-16.428h5.939v16.428h16.431v5.939h-16.431v16.431h-5.939v-16.431h-16.428
	V379.789z"/>
<g>
	<path style="fill:#FAD24D;" d="M353.622,404.739h6.046v-6.046h2.185v6.046h6.048v2.185h-6.048v6.048h-2.185v-6.048h-6.046V404.739z
		"/>
	<path style="fill:#FAD24D;" d="M166.563,115.622h6.046v-6.046h2.185v6.046h6.048v2.185h-6.048v6.048h-2.185v-6.048h-6.046V115.622z
		"/>
</g>
</svg>