<?xml version="1.0" encoding="iso-8859-1"?>
<!-- Uploaded to: SVG Repo, www.svgrepo.com, Generator: SVG Repo Mixer Tools -->
<svg height="800px" width="800px" version="1.1" id="Layer_1" xmlns="http://www.w3.org/2000/svg" xmlns:xlink="http://www.w3.org/1999/xlink" 
	 viewBox="0 0 512.005 512.005" xml:space="preserve">
<circle style="fill:#FAD24D;" cx="256.003" cy="256.003" r="256.003"/>
<circle style="fill:#ECF0F1;" cx="256.003" cy="256.003" r="146.595"/>
<path style="fill:#21D0C3;" d="M232.795,281.677l-20.563,5.953l-42.375,10.05c0,0-5.169-3.617-8.324,6.064
	c-1.422,4.365-5.436,26.97-9.414,50.48c27.612,24.586,63.996,39.533,103.875,39.533s76.264-14.947,103.875-39.533
	c-3.977-23.505-7.99-46.115-9.414-50.48c-3.15-9.681-8.324-6.064-8.324-6.064l-42.375-10.05l-20.563-5.953l-23.206,1.035
	l-23.206-1.035L232.795,281.677L232.795,281.677z"/>
<path style="fill:#F0BA7D;" d="M236.684,243.478h7.677h23.28h7.677l3.132,33.316l5.556,4.563l11.723,7.635l-39.723,96.018
	l-39.723-96.018l11.723-7.635l5.561-4.559l3.127-33.316L236.684,243.478z"/>
<path style="fill:#F2F2F2;" d="M223.94,283.82l-7.616,2.489l39.677,98.697l40.028-98.481l-8.129-2.638l-19.921,14.393h-23.88
	L223.94,283.82z"/>
<path style="fill:#FF5B62;" d="M248.854,296.966l2.739,6.91l-6.083,78.739l10.495,8.222l10.495-8.222l-6.083-78.739l2.739-6.91
	l-7.15-0.291L248.854,296.966z"/>
<path style="fill:#15BDB2;" d="M224.49,283.64l-12.217,3.991l-2.346,31.718c0,0,0.647,2.605,2.587,2.369l11.026,4.24
	c0,0,0.721,0.739,0.079,1.672l-9.437,6.614l26.896,58.799c4.813,0.457,9.686,0.698,14.619,0.712l-31.201-110.116h-0.004V283.64z
	 M270.933,393.044l26.892-58.795l-9.437-6.614c-0.647-0.933,0.079-1.672,0.079-1.672l11.026-4.24
	c1.94,0.236,2.587-2.369,2.587-2.369l-2.337-31.612l-11.838-3.843L256.32,393.762c4.928-0.009,9.801-0.255,14.615-0.712v-0.006
	H270.933z"/>
<path style="fill:#FED298;" d="M300.993,184.398c0,2.886,1.104,5.718,1.021,8.49c10.351-1.833,5.354,27.525-0.503,31.566
	c-0.466,0.318-1.612-0.392-2.577-0.984c-2.032,10.799-19.371,39.654-30.393,51.801c-3.062,3.371-21.788,3.317-24.818,0.13
	c-11.289-11.866-28.609-41.067-30.651-51.926c-0.965,0.591-2.111,1.302-2.577,0.984c-5.857-4.037-10.855-33.399-0.503-31.566
	c-0.083-2.772,1.025-5.598,1.025-8.49c0.573-22.799,22.208-34.181,44.989-34.277c22.781,0.097,44.416,11.478,44.989,34.277v-0.005
	H300.993z"/>
<path style="fill:#666666;" d="M287.123,155.168c3.266-0.365,15.058,3.085,16.471,15.002c1.418,11.912,0.739,22.892,0.739,22.892
	s-6.91,1.668-7.778,8.43c-0.868,6.762-0.25,6.762-0.25,6.762l-2.503-0.536l-1.783-11.593c-10.337-6.185,0.079-15.344-10.259-17.487
	c-27.917,18.998-52.554,15.746-63.663,6.809c0,0,2.591,9.349,0.596,12.683c-2,3.335-0.808,8.586-0.808,8.586l-2.596-0.12
	c0,0,0.471-13.769-5.294-13.709c-21.903-34.531,47.437-77.428,77.127-37.714v-0.004H287.123z"/>
<g>
	<path style="fill:#FFFFFF;" d="M233.289,272.037c0.813,0.06-9.455,11.908-9.455,11.908l8.739,30.619l23.427-17.889
		C243.114,290.203,235.423,281.824,233.289,272.037z"/>
	<path style="fill:#FFFFFF;" d="M278.716,272.037c-0.813,0.06,9.451,11.908,9.451,11.908l-8.739,30.619L256,296.674
		C268.887,290.203,276.578,281.824,278.716,272.037z"/>
</g>
<path style="fill:#21D0C3;" d="M88.652,278.73l-10.439,3.021l-21.506,5.104c0,0-2.624-1.838-4.227,3.076
	c-0.721,2.217-2.758,13.69-4.776,25.621c14.014,12.481,32.481,20.065,52.721,20.065c10.268,0,20.079-1.954,29.08-5.505
	c-9.113-15.515-15.45-32.854-18.337-51.335l-10.744,0.48l-11.778-0.527H88.652z"/>
<path style="fill:#F0BA7D;" d="M90.628,259.344h3.893h11.815h3.118c0.286,12.706,2.18,25.016,5.501,36.726l-14.527,35.109
	l-20.162-48.734l5.949-3.875l2.823-2.315l1.584-16.91H90.628z"/>
<path style="fill:#F2F2F2;" d="M84.157,279.82l-3.866,1.266l20.139,50.093l14.425-35.483c-1.146-4.083-2.116-8.24-2.91-12.462
	l-5.436,3.926h-12.12L84.157,279.82z"/>
<path style="fill:#FF5B62;" d="M96.804,286.49l1.39,3.506l-3.086,39.962l5.326,4.171l5.331-4.171l-3.085-39.963l1.39-3.506
	l-3.631-0.148l-3.631,0.148L96.804,286.49L96.804,286.49z"/>
<path style="fill:#15BDB2;" d="M84.439,279.727l-6.199,2.023l-1.192,16.097c0,0,0.328,1.325,1.311,1.206l5.593,2.153
	c0,0,0.369,0.378,0.042,0.85l-4.79,3.357l13.648,29.843c2.443,0.231,4.919,0.355,7.418,0.36l-15.838-55.889H84.439z
	 M108.009,335.256l11.616-25.395c-2.457-6.222-4.494-12.651-6.092-19.257l-12.938,45.012c2.503-0.005,4.974-0.13,7.418-0.36H108.009
	z"/>
<path style="fill:#FED298;" d="M77.598,224.956c0,1.57-0.559,3.109-0.517,4.614c-5.252-0.998-2.716,14.97,0.258,17.169
	c0.236,0.176,0.817-0.213,1.307-0.536c1.03,5.871,9.829,21.57,15.427,28.175c1.557,1.833,11.058,1.801,12.596,0.069
	c1.058-1.192,2.222-2.707,3.418-4.42c-0.439-4.619-0.67-9.293-0.67-14.028c0-15.617,2.452-30.655,6.974-44.767
	c-4.259-3.257-10.033-4.896-15.954-4.923c-11.562,0.051-22.545,6.245-22.836,18.647L77.598,224.956L77.598,224.956z"/>
<path style="fill:#666666;" d="M84.638,209.058c-1.658-0.199-7.644,1.682-8.361,8.157c-0.716,6.48-0.374,12.453-0.374,12.453
	s3.506,0.905,3.949,4.582c0.439,3.681,0.125,3.681,0.125,3.681l1.271-0.291l0.905-6.305c5.247-3.362-0.037-8.347,5.21-9.511
	c9.428,6.873,18.116,8.393,24.54,7.206c1.418-7.607,3.418-15.007,5.958-22.152c-9.354-7.815-24.586-10.189-33.219,2.185
	L84.638,209.058z"/>
<g>
	<path style="fill:#FFFFFF;" d="M88.905,273.839c0.411,0.032-4.799,6.041-4.799,6.041l4.434,15.538l11.889-9.08
		c-6.54-3.284-10.444-7.538-11.529-12.504L88.905,273.839z"/>
	<path style="fill:#FFFFFF;" d="M113.607,290.92l-1.285,4.503l-11.894-9.08c5.164-2.591,8.679-5.788,10.467-9.46
		c0.679,4.758,1.584,9.437,2.707,14.037H113.607z"/>
</g>
<path style="fill:#21D0C3;" d="M406.979,278.73l-6.452,1.87c-2.84,16.808-8.54,32.638-16.582,46.984
	c10.509,5.145,22.324,8.037,34.813,8.037c20.241,0,38.707-7.589,52.721-20.065c-2.018-11.931-4.055-23.405-4.776-25.621
	c-1.598-4.914-4.227-3.076-4.227-3.076l-21.506-5.104l-10.434-3.021l-11.778,0.527l-11.778-0.527L406.979,278.73L406.979,278.73z"/>
<path style="fill:#F0BA7D;" d="M408.952,259.344h3.893h11.815h3.893l1.589,16.905l2.823,2.315l5.949,3.875l-20.162,48.734
	l-19.062-46.069c0.258-1.275,0.494-2.559,0.721-3.848l4.129-2.688l2.823-2.315l1.584-16.91H408.952z"/>
<path style="fill:#F2F2F2;" d="M402.485,279.82l-1.935,0.633c-0.213,1.257-0.434,2.503-0.679,3.746l18.887,46.98l20.319-49.982
	l-4.129-1.339l-10.111,7.303h-12.12L402.485,279.82z"/>
<path style="fill:#FF5B62;" d="M415.132,286.49l1.39,3.506l-3.086,39.962l5.326,4.171l5.331-4.171l-3.085-39.963l1.39-3.506
	l-3.631-0.148l-3.631,0.148L415.132,286.49L415.132,286.49z"/>
<path style="fill:#15BDB2;" d="M402.762,279.727l-2.213,0.721c-1.062,6.324-2.526,12.508-4.37,18.531
	c0.143,0.065,0.309,0.097,0.503,0.074l5.593,2.153c0,0,0.369,0.378,0.042,0.85l-4.79,3.357l13.648,29.843
	c2.443,0.231,4.914,0.355,7.418,0.36l-15.838-55.889H402.762z M426.332,335.256l13.649-29.843l-4.79-3.357
	c-0.328-0.471,0.042-0.85,0.042-0.85l5.593-2.153c0.984,0.12,1.311-1.206,1.311-1.206l-1.187-16.046l-6.009-1.949l-16.028,55.76
	c2.503-0.005,4.974-0.13,7.418-0.36V335.256z"/>
<path style="fill:#FED298;" d="M402.55,259.247c3.113,5.728,6.92,11.676,9.848,15.132c1.557,1.833,11.058,1.801,12.596,0.069
	c5.732-6.452,14.522-22.338,15.557-28.245c0.49,0.318,1.072,0.707,1.307,0.536c2.974-2.194,5.51-18.167,0.259-17.169
	c0.042-1.506-0.517-3.044-0.517-4.614c-0.291-12.402-11.27-18.591-22.836-18.647c-9.039,0.042-17.728,3.834-21.224,11.418
	c3.294,12.203,5.058,25.03,5.058,38.273c0,1.086-0.019,2.167-0.042,3.247h-0.006V259.247z"/>
<path style="fill:#666666;" d="M402.966,209.058c-1.211-0.143-4.721,0.817-6.813,3.862c1.833,5.977,3.294,12.115,4.361,18.388
	c5.192-3.362-0.06-8.328,5.178-9.492c14.17,10.333,26.674,8.563,32.314,3.705c0,0-1.316,5.085-0.3,6.896
	c1.012,1.815,0.406,4.67,0.406,4.67l1.316-0.065c0,0-0.241-7.487,2.688-7.455c11.117-18.781-24.078-42.111-39.146-20.513
	L402.966,209.058z"/>
<g>
	<path style="fill:#FFFFFF;" d="M407.229,273.839c0.411,0.032-4.799,6.041-4.799,6.041l4.434,15.538l11.889-9.08
		c-6.54-3.284-10.444-7.538-11.529-12.504L407.229,273.839z"/>
	<path style="fill:#FFFFFF;" d="M430.287,273.839c-0.411,0.032,4.799,6.041,4.799,6.041l-4.434,15.538l-11.894-9.08
		c6.54-3.284,10.444-7.538,11.529-12.504L430.287,273.839L430.287,273.839z"/>
</g>
<path style="fill:#086470;" d="M266.901,409.898v28.471h-21.798v-28.471c3.603,0.258,7.233,0.397,10.901,0.397
	C259.667,410.296,263.302,410.157,266.901,409.898z"/>
<path style="fill:#0F7986;" d="M256,100.573c42.92,0,81.778,17.399,109.907,45.525c28.124,28.129,45.525,66.989,45.525,109.907
	s-17.399,81.778-45.525,109.907c-28.129,28.124-66.989,45.525-109.907,45.525s-81.778-17.399-109.907-45.525
	c-28.124-28.129-45.525-66.984-45.525-109.907c0-42.92,17.399-81.778,45.525-109.907C174.221,117.973,213.076,100.573,256,100.573z
	 M353.404,158.601c-24.929-24.924-59.368-40.347-97.405-40.347s-72.476,15.418-97.405,40.347
	c-24.924,24.929-40.347,59.368-40.347,97.405c0,38.037,15.418,72.476,40.347,97.405c24.929,24.924,59.363,40.347,97.405,40.347
	c38.037,0,72.476-15.418,97.405-40.347c24.924-24.929,40.347-59.363,40.347-97.405C393.751,217.967,378.333,183.529,353.404,158.601
	z"/>
<path style="fill:#FF5B62;" d="M235.728,438.365h40.549c4.457,0,8.106,3.649,8.106,8.106v63.954
	C275.062,511.455,265.598,512,256,512c-9.593,0-19.062-0.545-28.384-1.575v-63.954c0-4.457,3.649-8.106,8.106-8.106L235.728,438.365
	L235.728,438.365z"/>
<path style="fill:#ED4C54;" d="M227.622,448.347h56.762v4.415h-56.762V448.347z M227.622,456.924h56.762v4.415h-56.762V456.924z"/>
<g>
	<path style="fill:#FFFFFF;" d="M213.663,387.478c-55.058-18.328-94.758-70.263-94.758-131.473s39.7-113.145,94.753-131.474
		c-47.529,24.619-80.014,74.25-80.014,131.474S166.129,362.86,213.663,387.478z"/>
	<path style="fill:#FFFFFF;" d="M312.827,374.629c44.203-16.536,76.074-63.4,76.074-118.628s-31.871-102.093-76.074-118.628
		c5.053,2.942,9.894,6.282,14.49,9.982c33.561,21.519,56.19,62.111,56.19,108.647c0,46.541-22.633,87.137-56.199,108.656
		c-4.596,3.695-9.432,7.034-14.485,9.977L312.827,374.629z"/>
</g>
</svg>